<svg preserveAspectRatio="none" overflow="visible" style="display: block;" width="139.357" height="99.9996" viewBox="0 0 139.357 99.9996" fill="none" xmlns="http://www.w3.org/2000/svg">
<g id="Group 50">
<path id="Vector" d="M137.983 37.7493C137.605 37.4491 134.077 34.785 126.636 34.785C124.671 34.7936 122.711 34.9621 120.773 35.289C119.333 25.4181 111.172 20.6055 110.806 20.3896L108.808 19.2374L107.494 21.1336C105.848 23.6809 104.647 26.489 103.942 29.4384C102.61 35.0731 103.42 40.3654 106.282 44.8899C102.826 46.8161 97.2811 47.2902 96.1591 47.3321H4.36226C1.96455 47.3354 0.0189212 49.2731 0.00585419 51.6706C-0.101218 59.7125 1.26127 67.7064 4.02622 75.2588C7.18845 83.5517 11.893 89.6602 18.0136 93.3986C24.8723 97.5989 36.0153 99.9992 48.6465 99.9992C54.3527 100.017 60.0482 99.5007 65.6583 98.4571C73.4568 97.0252 80.961 94.2994 87.8604 90.3922C93.5453 87.1001 98.6617 82.912 103.012 77.989C110.285 69.7562 114.617 60.5872 117.839 52.4386H119.123C127.086 52.4386 131.983 49.2522 134.683 46.582C136.477 44.879 137.878 42.8045 138.787 40.5035L139.357 38.8354L137.983 37.7493Z" fill="#2496ED"/>
<path id="Vector_2" d="M12.8708 44.6444H25.1719C25.7652 44.6444 26.246 44.1634 26.246 43.5703V32.6131C26.2493 32.0198 25.7711 31.5364 25.178 31.533C25.176 31.533 25.1739 31.533 25.1719 31.533H12.8708C12.2775 31.533 11.7967 32.014 11.7967 32.6071V32.6131V43.5701C11.7967 44.1634 12.2775 44.6444 12.8708 44.6444V44.6444Z" fill="#2496ED"/>
<path id="Vector_3" d="M29.8227 44.6444H42.1239C42.7171 44.6444 43.1979 44.1634 43.1979 43.5703V32.6131C43.2012 32.0198 42.723 31.5364 42.1297 31.533C42.1278 31.533 42.1256 31.533 42.1237 31.533H29.8225C29.2259 31.533 28.7424 32.0165 28.7424 32.6131V43.5701C28.7459 44.1644 29.2284 44.6444 29.8227 44.6444" fill="#2496ED"/>
<path id="Vector_4" d="M47.032 44.6444H59.3331C59.9264 44.6444 60.4072 44.1634 60.4072 43.5703V32.6131C60.4105 32.0198 59.9323 31.5364 59.339 31.533C59.337 31.533 59.3349 31.533 59.3329 31.533H47.0318C46.4385 31.533 45.9577 32.014 45.9577 32.6071V32.6131V43.5701C45.9579 44.1634 46.4389 44.6444 47.032 44.6444V44.6444Z" fill="#2496ED"/>
<path id="Vector_5" d="M64.038 44.6444H76.3392C76.9334 44.6444 77.4159 44.1646 77.4193 43.5703V32.6131C77.4193 32.0165 76.9358 31.533 76.3392 31.533H64.038C63.4447 31.533 62.964 32.014 62.964 32.6071V32.6131V43.5701C62.964 44.1634 63.4449 44.6444 64.038 44.6444V44.6444Z" fill="#2496ED"/>
<path id="Vector_6" d="M29.8225 28.8805H42.1237C42.7177 28.8772 43.1977 28.3945 43.1977 27.8004V16.8434C43.1977 16.2501 42.7168 15.7694 42.1237 15.7694H29.8225C29.2284 15.7694 28.7457 16.2491 28.7424 16.8434V27.8004C28.7457 28.3956 29.2273 28.8772 29.8225 28.8805Z" fill="#2496ED"/>
<path id="Vector_7" d="M47.0326 28.8805H59.3338C59.9278 28.8772 60.4078 28.3945 60.4078 27.8004V16.8434C60.4078 16.2501 59.9268 15.7694 59.3338 15.7694H47.0326C46.4393 15.7694 45.9585 16.2503 45.9585 16.8434V27.8004C45.9585 28.3945 46.4385 28.8772 47.0326 28.8805Z" fill="#2496ED"/>
<path id="Vector_8" d="M64.038 28.8805H76.3392C76.9344 28.8772 77.4159 28.3956 77.4193 27.8004V16.8434C77.4159 16.2491 76.9334 15.7694 76.3392 15.7694H64.038C63.4447 15.7694 62.964 16.2503 62.964 16.8434V27.8004C62.964 28.3945 63.4439 28.8772 64.038 28.8805Z" fill="#2496ED"/>
<path id="Vector_9" d="M64.038 13.1113H76.3392C76.9334 13.1113 77.4159 12.6314 77.4193 12.0373V1.07403C77.4159 0.479776 76.9334 0 76.3392 0H64.038C63.4447 0 62.964 0.480751 62.964 1.07403V12.0371C62.964 12.6304 63.4449 13.1113 64.038 13.1113Z" fill="#2496ED"/>
<path id="Vector_10" d="M81.1932 44.6444H93.4944C94.0886 44.6444 94.5711 44.1646 94.5744 43.5703V32.6131C94.5744 32.0165 94.091 31.533 93.4944 31.533H81.1932C80.6001 31.533 80.1191 32.014 80.1191 32.6071V32.6131V43.5701C80.1191 44.1634 80.6001 44.6444 81.1932 44.6444" fill="#2496ED"/>
</g>
</svg>
