<svg preserveAspectRatio="none" overflow="visible" style="display: block;" width="100" height="100" viewBox="0 0 100 100" fill="none" xmlns="http://www.w3.org/2000/svg">
<g id="sqldeveloper">
<path id="Vector" d="M40.1524 19.436C18.729 19.436 1.36414 16.4422 1.36414 12.768V84.8469C1.36414 88.5399 18.729 91.5157 40.1524 91.5157C61.5751 91.5157 78.9399 88.5219 78.9399 84.8469V12.7258C78.9399 16.443 61.5751 19.436 40.1524 19.436Z" fill="#D1D1D1"/>
<path id="Vector_2" d="M1.36414 12.7266V84.8477C1.36414 88.5407 18.729 91.5165 40.1524 91.5165V19.4368C18.729 19.4368 1.36414 16.443 1.36414 12.7258V12.7266ZM73.4868 16.168V88.2477C76.9438 87.2501 78.9399 86.0782 78.9399 84.8297V12.7258C78.9399 14.0016 76.9501 15.1524 73.4868 16.168Z" fill="#ADADAD"/>
<path id="Vector_3" d="M78.9399 12.7444C78.9399 9.05454 61.5727 6.06079 40.1524 6.06079C18.729 6.06079 1.36414 9.05454 1.36414 12.7444C1.36414 16.4366 18.729 19.4303 40.1524 19.4303C61.5719 19.4303 78.9399 16.4366 78.9399 12.7444ZM1.36414 58.0717C1.36414 61.7647 18.729 64.7397 40.1524 64.7397C61.5751 64.7397 78.9399 61.7459 78.9399 58.0717V63.528C78.9399 67.2178 61.5751 70.1936 40.1524 70.1936C18.7298 70.1936 1.36414 67.1999 1.36414 63.528V58.0717ZM1.36414 34.0483C1.36414 37.7381 18.729 40.7163 40.1524 40.7163C61.5751 40.7163 78.9399 37.7194 78.9399 34.0483V39.5014C78.9399 43.1944 61.5751 46.1702 40.1524 46.1702C18.7298 46.1702 1.36414 43.1764 1.36414 39.5022V34.0483Z" fill="#939699"/>
<path id="Vector_4" d="M98.9372 72.7258C98.9372 85.4453 88.6286 95.757 75.9091 95.757C63.1895 95.757 52.8778 85.4453 52.8778 72.7258C52.8778 60.0062 63.1895 49.6969 75.9091 49.6969C88.6286 49.6969 98.9372 60.0062 98.9372 72.7258Z" fill="#ECEDF0"/>
<path id="Vector_5" d="M96.097 72.7266C96.097 83.8773 87.058 92.9141 75.9096 92.9141C64.7588 92.9141 55.722 83.8773 55.722 72.7266C55.722 61.5781 64.7588 52.5391 75.9096 52.5391C87.058 52.5391 96.097 61.5781 96.097 72.7266Z" fill="#3FAA00"/>
<path id="Vector_6" d="M68.7996 82.7391L87.5707 71.9032L68.7988 61.0657L68.7996 82.7391Z" fill="white"/>
</g>
</svg>
